<svg xmlns="http://www.w3.org/2000/svg" width="458" height="70.798" viewBox="0 0 458 70.798"><defs><style>.a{fill:#131313;}.b{fill:#f06700;}</style></defs><g transform="translate(0 0)"><path class="a" d="M223.844,285.686H237.19a18.121,18.121,0,0,0-7.537-14.162,22.682,22.682,0,0,0-7.3-3.5,31.123,31.123,0,0,0-8.5-1.152,27.077,27.077,0,0,0-10.754,2.016,22.632,22.632,0,0,0-7.969,5.617,24.084,24.084,0,0,0-4.945,8.545,33.07,33.07,0,0,0-1.68,10.706,27.8,27.8,0,0,0,1.824,10.225,23.831,23.831,0,0,0,5.089,8.017,22.673,22.673,0,0,0,7.921,5.233,27.169,27.169,0,0,0,10.226,1.872q9.889,0,16.226-5.185t7.681-15.074H224.324a12.944,12.944,0,0,1-3.312,7.345q-2.64,2.737-7.537,2.736a9.631,9.631,0,0,1-5.377-1.44,10.756,10.756,0,0,1-3.5-3.7,16.928,16.928,0,0,1-1.872-5.041,26.965,26.965,0,0,1-.576-5.473,28.125,28.125,0,0,1,.576-5.617,16.586,16.586,0,0,1,1.968-5.185,11.827,11.827,0,0,1,3.6-3.841,9.575,9.575,0,0,1,5.473-1.488Q222.5,277.141,223.844,285.686Z" transform="translate(-188.511 -248.3)"/><path class="a" d="M545.314,293.079a29.782,29.782,0,0,1,.576-5.857,14.938,14.938,0,0,1,1.968-5.089,10.485,10.485,0,0,1,9.457-4.993,11.233,11.233,0,0,1,5.809,1.392,10.916,10.916,0,0,1,3.744,3.6,14.936,14.936,0,0,1,1.968,5.089,29.791,29.791,0,0,1,.576,5.857,29.072,29.072,0,0,1-.576,5.809,15.47,15.47,0,0,1-1.968,5.089,10.364,10.364,0,0,1-3.744,3.6,11.554,11.554,0,0,1-5.809,1.344,11.285,11.285,0,0,1-5.761-1.344,10.484,10.484,0,0,1-3.7-3.6,15.471,15.471,0,0,1-1.968-5.089A29.063,29.063,0,0,1,545.314,293.079Zm-13.634,0a30.078,30.078,0,0,0,1.824,10.754,23.326,23.326,0,0,0,5.185,8.209,22.68,22.68,0,0,0,8.065,5.233,29.015,29.015,0,0,0,10.561,1.824,29.4,29.4,0,0,0,10.61-1.824,22.6,22.6,0,0,0,8.113-5.233,23.327,23.327,0,0,0,5.185-8.209,30.077,30.077,0,0,0,1.824-10.754,30.471,30.471,0,0,0-1.824-10.8,22.608,22.608,0,0,0-13.3-13.538,28.73,28.73,0,0,0-10.61-1.872,28.352,28.352,0,0,0-10.561,1.872,22.7,22.7,0,0,0-13.25,13.538A30.472,30.472,0,0,0,531.68,293.079Z" transform="translate(-482.041 -248.3)"/><path class="a" d="M903.391,268.211V317.85h13.634V291.83q0-7.585,2.5-10.9t8.065-3.312q4.9,0,6.817,3.024t1.92,9.169V317.85h13.634V287.318a40.01,40.01,0,0,0-.816-8.4,15.978,15.978,0,0,0-2.832-6.433,13.309,13.309,0,0,0-5.521-4.129,23.154,23.154,0,0,0-8.977-1.488,19.435,19.435,0,0,0-8.449,1.968,15.644,15.644,0,0,0-6.721,6.289h-.288v-6.913Z" transform="translate(-799.984 -248.3)"/><path class="a" d="M1248.03,268.211V317.85h13.634V291.83q0-7.585,2.5-10.9t8.065-3.312q4.9,0,6.817,3.024t1.92,9.169V317.85H1294.6V287.318a39.994,39.994,0,0,0-.816-8.4,15.975,15.975,0,0,0-2.832-6.433,13.31,13.31,0,0,0-5.521-4.129,23.155,23.155,0,0,0-8.978-1.488,19.436,19.436,0,0,0-8.449,1.968,15.646,15.646,0,0,0-6.721,6.289h-.288v-6.913Z" transform="translate(-1094.772 -248.3)"/><path class="a" d="M1618.517,287.7h-22.179a15.648,15.648,0,0,1,.624-3.264,10.017,10.017,0,0,1,1.824-3.456,10.329,10.329,0,0,1,3.456-2.736,11.864,11.864,0,0,1,5.425-1.1q4.993,0,7.441,2.688A15.759,15.759,0,0,1,1618.517,287.7Zm-22.179,8.641h35.813a35.046,35.046,0,0,0-.96-11.042,27.036,27.036,0,0,0-4.369-9.409,22.039,22.039,0,0,0-7.729-6.577,23.6,23.6,0,0,0-11.042-2.448,25.71,25.71,0,0,0-10.321,2.016,24,24,0,0,0-13.2,13.826,28.954,28.954,0,0,0-1.824,10.369,30.232,30.232,0,0,0,1.776,10.562,23.99,23.99,0,0,0,5.041,8.257,21.964,21.964,0,0,0,7.969,5.329,28.351,28.351,0,0,0,10.562,1.872,26,26,0,0,0,14.4-3.841q5.953-3.84,8.833-12.77h-12a8.566,8.566,0,0,1-3.648,4.368,12.155,12.155,0,0,1-7.1,2.064q-5.761,0-8.833-2.976T1596.338,296.343Z" transform="translate(-1381.035 -248.3)"/><path class="a" d="M1967.175,285.686h13.346a18.121,18.121,0,0,0-7.537-14.162,22.682,22.682,0,0,0-7.3-3.5,31.123,31.123,0,0,0-8.5-1.152,27.075,27.075,0,0,0-10.753,2.016,22.631,22.631,0,0,0-7.969,5.617,24.086,24.086,0,0,0-4.945,8.545,33.065,33.065,0,0,0-1.68,10.706,27.8,27.8,0,0,0,1.824,10.225,23.832,23.832,0,0,0,5.089,8.017,22.671,22.671,0,0,0,7.921,5.233A27.168,27.168,0,0,0,1956.9,319.1q9.89,0,16.226-5.185t7.681-15.074h-13.154a12.944,12.944,0,0,1-3.312,7.345q-2.64,2.737-7.537,2.736a9.631,9.631,0,0,1-5.377-1.44,10.756,10.756,0,0,1-3.5-3.7,16.94,16.94,0,0,1-1.872-5.041,26.976,26.976,0,0,1-.576-5.473,28.136,28.136,0,0,1,.576-5.617,16.6,16.6,0,0,1,1.968-5.185,11.833,11.833,0,0,1,3.6-3.841,9.575,9.575,0,0,1,5.473-1.488q8.737,0,10.081,8.545Z" transform="translate(-1679.671 -248.3)"/><path class="a" d="M2275.662,188.158V173.276h-13.634v14.882h-8.257v9.121h8.257v29.284a12.685,12.685,0,0,0,1.248,6.049,8.9,8.9,0,0,0,3.408,3.553,14.149,14.149,0,0,0,4.993,1.68,39.8,39.8,0,0,0,6,.432q2.016,0,4.128-.1a32.408,32.408,0,0,0,3.841-.384V227.235a19.117,19.117,0,0,1-2.016.288q-1.056.1-2.208.1-3.456,0-4.609-1.152t-1.152-4.609V197.279h9.985v-9.121Z" transform="translate(-1955.033 -168.247)"/><g transform="translate(333.015)"><rect class="a" width="13.634" height="49.639" transform="translate(0 19.911)"/><ellipse class="b" cx="6.817" cy="6.817" rx="6.817" ry="6.817" transform="translate(0)"/></g><path class="a" d="M2627.781,325.8l16.8-49.639h-13.538l-10.466,33.893h-.191l-10.466-33.893h-14.306L2612.61,325.8Z" transform="translate(-2247.431 -256.249)"/><path class="a" d="M2945.667,287.7h-22.18a15.652,15.652,0,0,1,.625-3.264,10.029,10.029,0,0,1,1.824-3.456,10.329,10.329,0,0,1,3.456-2.736,11.865,11.865,0,0,1,5.425-1.1q4.993,0,7.441,2.688A15.761,15.761,0,0,1,2945.667,287.7Zm-22.18,8.641H2959.3a35.046,35.046,0,0,0-.96-11.042,27.018,27.018,0,0,0-4.369-9.409,22.032,22.032,0,0,0-7.729-6.577,23.6,23.6,0,0,0-11.042-2.448,25.711,25.711,0,0,0-10.321,2.016,23.995,23.995,0,0,0-13.2,13.826,28.959,28.959,0,0,0-1.825,10.369,30.226,30.226,0,0,0,1.776,10.562,23.99,23.99,0,0,0,5.041,8.257,21.96,21.96,0,0,0,7.969,5.329A28.351,28.351,0,0,0,2935.2,319.1a26,26,0,0,0,14.4-3.841q5.953-3.84,8.833-12.77h-12a8.558,8.558,0,0,1-3.648,4.368,12.156,12.156,0,0,1-7.105,2.064q-5.761,0-8.833-2.976T2923.487,296.343Z" transform="translate(-2516.214 -248.3)"/><ellipse class="b" cx="6.817" cy="6.817" rx="6.817" ry="6.817" transform="translate(444.366 55.34)"/></g></svg>