<svg xmlns="http://www.w3.org/2000/svg" xmlns:xlink="http://www.w3.org/1999/xlink" width="842.635" height="1080" viewBox="0 0 842.635 1080"><defs><clipPath id="a"><path d="M492.5,0H871V1080H28.365Z" transform="translate(1049)"/></clipPath></defs><g transform="translate(-1077.365)" opacity="0.245" clip-path="url(#a)"><g transform="translate(704 -9)"><g transform="matrix(-0.921, -0.391, 0.391, -0.921, 132.051, 225.55)" fill="none" stroke="#cc3a00" stroke-width="3" opacity="0.963"><circle cx="8.564" cy="8.564" r="8.564" stroke="none"/><circle cx="8.564" cy="8.564" r="7.064" fill="none"/></g><g transform="translate(106.689 610.798) rotate(146)" fill="none" stroke="#cc3a00" stroke-width="3" opacity="0.816"><circle cx="9.661" cy="9.661" r="9.661" stroke="none"/><circle cx="9.661" cy="9.661" r="8.161" fill="none"/></g><g transform="translate(130.651 828.938) rotate(169)" fill="none" stroke="#cc3a00" stroke-width="3" opacity="0.882"><circle cx="8.922" cy="8.922" r="8.922" stroke="none"/><circle cx="8.922" cy="8.922" r="7.422" fill="none"/></g><g transform="matrix(-0.407, -0.914, 0.914, -0.407, 190.529, 978.566)" fill="none" stroke="#cc3a00" stroke-width="3" opacity="0.811"><circle cx="8.567" cy="8.567" r="8.567" stroke="none"/><circle cx="8.567" cy="8.567" r="7.067" fill="none"/></g><g transform="translate(110.888 1058.272) rotate(74)" fill="none" stroke="#cc3a00" stroke-width="3" opacity="0.839"><circle cx="9.368" cy="9.368" r="9.368" stroke="none"/><circle cx="9.368" cy="9.368" r="7.868" fill="none"/></g><g transform="translate(256.173 72.506) rotate(-172)" fill="none" stroke="#cc3a00" stroke-width="3" opacity="0.882"><circle cx="10.457" cy="10.457" r="10.457" stroke="none"/><circle cx="10.457" cy="10.457" r="8.957" fill="none"/></g><g transform="translate(356.297 117.799) rotate(56)" fill="none" stroke="#cc3a00" stroke-width="3" opacity="0.862"><circle cx="8.601" cy="8.601" r="8.601" stroke="none"/><circle cx="8.601" cy="8.601" r="7.101" fill="none"/></g><g transform="translate(299.032 286.196) rotate(99)" fill="none" stroke="#cc3a00" stroke-width="3" opacity="0.923"><circle cx="9.703" cy="9.703" r="9.703" stroke="none"/><circle cx="9.703" cy="9.703" r="8.203" fill="none"/></g><g transform="translate(371.616 360.158) rotate(43)" fill="none" stroke="#cc3a00" stroke-width="3" opacity="0.856"><circle cx="9.676" cy="9.676" r="9.676" stroke="none"/><circle cx="9.676" cy="9.676" r="8.176" fill="none"/></g><g transform="matrix(0.469, 0.883, -0.883, 0.469, 313.196, 434.685)" fill="none" stroke="#cc3a00" stroke-width="3" opacity="0.82"><circle cx="10.294" cy="10.294" r="10.294" stroke="none"/><circle cx="10.294" cy="10.294" r="8.794" fill="none"/></g><g transform="translate(402.274 768.757) rotate(121)" fill="none" stroke="#cc3a00" stroke-width="3" opacity="0.881"><circle cx="9.05" cy="9.05" r="9.05" stroke="none"/><circle cx="9.05" cy="9.05" r="7.55" fill="none"/></g><g transform="translate(548.164 272.699) rotate(-99)" fill="none" stroke="#cc3a00" stroke-width="3" opacity="0.854"><circle cx="10.541" cy="10.541" r="10.541" stroke="none"/><circle cx="10.541" cy="10.541" r="9.041" fill="none"/></g><g transform="matrix(0.891, 0.454, -0.454, 0.891, 647.304, 609.074)" fill="none" stroke="#cc3a00" stroke-width="3" opacity="0.854"><circle cx="9.959" cy="9.959" r="9.959" stroke="none"/><circle cx="9.959" cy="9.959" r="8.459" fill="none"/></g><g transform="translate(605.846 1048.704) rotate(99)" fill="none" stroke="#cc3a00" stroke-width="3" opacity="0.828"><circle cx="9.687" cy="9.687" r="9.687" stroke="none"/><circle cx="9.687" cy="9.687" r="8.187" fill="none"/></g><g transform="translate(883.557 49.108) rotate(-138)" fill="none" stroke="#cc3a00" stroke-width="3" opacity="0.854"><circle cx="9.185" cy="9.185" r="9.185" stroke="none"/><circle cx="9.185" cy="9.185" r="7.685" fill="none"/></g><g transform="matrix(0.839, 0.545, -0.545, 0.839, 734.141, 160.725)" fill="none" stroke="#cc3a00" stroke-width="3" opacity="0.993"><circle cx="10.741" cy="10.741" r="10.741" stroke="none"/><circle cx="10.741" cy="10.741" r="9.241" fill="none"/></g><g transform="translate(910.928 435.991) rotate(158)" fill="none" stroke="#cc3a00" stroke-width="3" opacity="0.986"><circle cx="10.437" cy="10.437" r="10.437" stroke="none"/><circle cx="10.437" cy="10.437" r="8.937" fill="none"/></g><g transform="matrix(0.978, 0.208, -0.208, 0.978, 809.892, 481.215)" fill="none" stroke="#cc3a00" stroke-width="3" opacity="0.977"><circle cx="10.666" cy="10.666" r="10.666" stroke="none"/><circle cx="10.666" cy="10.666" r="9.166" fill="none"/></g><g transform="matrix(-0.875, -0.485, 0.485, -0.875, 923.17, 1034.905)" fill="none" stroke="#cc3a00" stroke-width="3" opacity="0.839"><circle cx="9.315" cy="9.315" r="9.315" stroke="none"/><circle cx="9.315" cy="9.315" r="7.815" fill="none"/></g><g transform="translate(1144.045 19.508) rotate(11)" fill="none" stroke="#cc3a00" stroke-width="3" opacity="0.864"><circle cx="10.946" cy="10.946" r="10.946" stroke="none"/><circle cx="10.946" cy="10.946" r="9.446" fill="none"/></g><g transform="matrix(-0.719, 0.695, -0.695, -0.719, 1141.652, 583.511)" fill="none" stroke="#cc3a00" stroke-width="3" opacity="0.987"><circle cx="10.233" cy="10.233" r="10.233" stroke="none"/><circle cx="10.233" cy="10.233" r="8.733" fill="none"/></g><g transform="matrix(0.259, 0.966, -0.966, 0.259, 1022.57, 637.257)" fill="none" stroke="#cc3a00" stroke-width="3" opacity="0.931"><circle cx="9.04" cy="9.04" r="9.04" stroke="none"/><circle cx="9.04" cy="9.04" r="7.54" fill="none"/></g><g transform="matrix(-0.978, -0.208, 0.208, -0.978, 972.45, 815.228)" fill="none" stroke="#cc3a00" stroke-width="3" opacity="0.985"><circle cx="10.113" cy="10.113" r="10.113" stroke="none"/><circle cx="10.113" cy="10.113" r="8.613" fill="none"/></g><g transform="translate(1000.086 934.324) rotate(180)" fill="none" stroke="#cc3a00" stroke-width="3" opacity="0.813"><circle cx="9.036" cy="9.036" r="9.036" stroke="none"/><circle cx="9.036" cy="9.036" r="7.536" fill="none"/></g><g transform="translate(1405.732 40.678) rotate(41)" fill="none" stroke="#cc3a00" stroke-width="3" opacity="0.867"><circle cx="8.997" cy="8.997" r="8.997" stroke="none"/><circle cx="8.997" cy="8.997" r="7.497" fill="none"/></g><g transform="translate(1380.866 167.233) rotate(83)" fill="none" stroke="#cc3a00" stroke-width="3" opacity="0.96"><circle cx="10.485" cy="10.485" r="10.485" stroke="none"/><circle cx="10.485" cy="10.485" r="8.985" fill="none"/></g><g transform="translate(1311.643 300.152) rotate(124)" fill="none" stroke="#cc3a00" stroke-width="3" opacity="0.965"><circle cx="8.316" cy="8.316" r="8.316" stroke="none"/><circle cx="8.316" cy="8.316" r="6.816" fill="none"/></g><g transform="matrix(-0.998, -0.07, 0.07, -0.998, 1261.392, 526.858)" fill="none" stroke="#cc3a00" stroke-width="3" opacity="0.917"><circle cx="10.687" cy="10.687" r="10.687" stroke="none"/><circle cx="10.687" cy="10.687" r="9.187" fill="none"/></g><g transform="matrix(0.899, 0.438, -0.438, 0.899, 1261.842, 722.155)" fill="none" stroke="#cc3a00" stroke-width="3" opacity="0.919"><circle cx="10.933" cy="10.933" r="10.933" stroke="none"/><circle cx="10.933" cy="10.933" r="9.433" fill="none"/></g><g transform="translate(1506.602 96.208) rotate(-112)" fill="none" stroke="#cc3a00" stroke-width="3" opacity="0.958"><circle cx="10.477" cy="10.477" r="10.477" stroke="none"/><circle cx="10.477" cy="10.477" r="8.977" fill="none"/></g><g transform="translate(1604.211 146.329) rotate(47)" fill="none" stroke="#cc3a00" stroke-width="3" opacity="0.989"><circle cx="8.323" cy="8.323" r="8.323" stroke="none"/><circle cx="8.323" cy="8.323" r="6.823" fill="none"/></g><g transform="translate(1625.272 828.764) rotate(135)" fill="none" stroke="#cc3a00" stroke-width="3" opacity="0.954"><circle cx="8.789" cy="8.789" r="8.789" stroke="none"/><circle cx="8.789" cy="8.789" r="7.289" fill="none"/></g><g transform="matrix(-0.616, 0.788, -0.788, -0.616, 1509.408, 1053.242)" fill="none" stroke="#cc3a00" stroke-width="3" opacity="0.933"><circle cx="9.073" cy="9.073" r="9.073" stroke="none"/><circle cx="9.073" cy="9.073" r="7.573" fill="none"/></g><g transform="matrix(-0.391, 0.921, -0.921, -0.391, 1782.616, 186.578)" fill="none" stroke="#cc3a00" stroke-width="3" opacity="0.958"><circle cx="10.509" cy="10.509" r="10.509" stroke="none"/><circle cx="10.509" cy="10.509" r="9.009" fill="none"/></g><g transform="matrix(0.719, 0.695, -0.695, 0.719, 1740.271, 217.855)" fill="none" stroke="#cc3a00" stroke-width="3" opacity="0.815"><circle cx="9.54" cy="9.54" r="9.54" stroke="none"/><circle cx="9.54" cy="9.54" r="8.04" fill="none"/></g><g transform="matrix(-0.309, -0.951, 0.951, -0.309, 226.611, 112.431)" fill="none" stroke="#f06700" stroke-width="3" opacity="0.99"><rect width="21.352" height="21.352" rx="2" stroke="none"/><rect x="1.5" y="1.5" width="18.352" height="18.352" rx="0.5" fill="none"/></g><g transform="matrix(0.921, 0.391, -0.391, 0.921, 169.632, 217.466)" fill="none" stroke="#f06700" stroke-width="3" opacity="0.926"><rect width="18.047" height="18.047" rx="2" stroke="none"/><rect x="1.5" y="1.5" width="15.047" height="15.047" rx="0.5" fill="none"/></g><g transform="matrix(-0.259, -0.966, 0.966, -0.259, 119.261, 341.155)" fill="none" stroke="#f06700" stroke-width="3" opacity="0.821"><rect width="19.016" height="19.016" rx="2" stroke="none"/><rect x="1.5" y="1.5" width="16.016" height="16.016" rx="0.5" fill="none"/></g><g transform="matrix(-0.454, -0.891, 0.891, -0.454, 188.711, 538.85)" fill="none" stroke="#f06700" stroke-width="3" opacity="0.903"><rect width="16.774" height="16.774" rx="2" stroke="none"/><rect x="1.5" y="1.5" width="13.774" height="13.774" rx="0.5" fill="none"/></g><g transform="translate(2.233 705.292) rotate(-124)" fill="none" stroke="#f06700" stroke-width="3" opacity="0.88"><rect width="18.845" height="18.845" rx="2" stroke="none"/><rect x="1.5" y="1.5" width="15.845" height="15.845" rx="0.5" fill="none"/></g><g transform="matrix(0.105, 0.995, -0.995, 0.105, 459.261, 634.587)" fill="none" stroke="#f06700" stroke-width="3" opacity="0.864"><rect width="20.318" height="20.318" rx="2" stroke="none"/><rect x="1.5" y="1.5" width="17.318" height="17.318" rx="0.5" fill="none"/></g><g transform="matrix(0.035, 0.999, -0.999, 0.035, 345.439, 661.453)" fill="none" stroke="#f06700" stroke-width="3" opacity="0.98"><rect width="21.93" height="21.93" rx="2" stroke="none"/><rect x="1.5" y="1.5" width="18.93" height="18.93" rx="0.5" fill="none"/></g><g transform="translate(388.106 939.56) rotate(-166)" fill="none" stroke="#f06700" stroke-width="3" opacity="0.858"><rect width="20.501" height="20.501" rx="2" stroke="none"/><rect x="1.5" y="1.5" width="17.501" height="17.501" rx="0.5" fill="none"/></g><g transform="translate(275.697 1082.743) rotate(-131)" fill="none" stroke="#f06700" stroke-width="3" opacity="0.879"><rect width="20.62" height="20.62" rx="2" stroke="none"/><rect x="1.5" y="1.5" width="17.62" height="17.62" rx="0.5" fill="none"/></g><g transform="translate(714.129 60.256) rotate(169)" fill="none" stroke="#f06700" stroke-width="3" opacity="0.93"><rect width="19.923" height="19.923" rx="2" stroke="none"/><rect x="1.5" y="1.5" width="16.923" height="16.923" rx="0.5" fill="none"/></g><g transform="matrix(0.978, 0.208, -0.208, 0.978, 490.11, 178.499)" fill="none" stroke="#f06700" stroke-width="3" opacity="0.849"><rect width="18.03" height="18.03" rx="2" stroke="none"/><rect x="1.5" y="1.5" width="15.03" height="15.03" rx="0.5" fill="none"/></g><g transform="matrix(-0.999, 0.035, -0.035, -0.999, 510.709, 396.174)" fill="none" stroke="#f06700" stroke-width="3" opacity="0.939"><rect width="21.695" height="21.695" rx="2" stroke="none"/><rect x="1.5" y="1.5" width="18.695" height="18.695" rx="0.5" fill="none"/></g><g transform="translate(659.534 535.788) rotate(121)" fill="none" stroke="#f06700" stroke-width="3" opacity="0.985"><rect width="18.816" height="18.816" rx="2" stroke="none"/><rect x="1.5" y="1.5" width="15.816" height="15.816" rx="0.5" fill="none"/></g><g transform="translate(640.723 730.777) rotate(-97)" fill="none" stroke="#f06700" stroke-width="3" opacity="0.97"><rect width="20.125" height="20.125" rx="2" stroke="none"/><rect x="1.5" y="1.5" width="17.125" height="17.125" rx="0.5" fill="none"/></g><g transform="translate(546.239 848.436) rotate(3)" fill="none" stroke="#f06700" stroke-width="3" opacity="0.926"><rect width="16.552" height="16.552" rx="2" stroke="none"/><rect x="1.5" y="1.5" width="13.552" height="13.552" rx="0.5" fill="none"/></g><g transform="translate(650.591 855.575) rotate(68)" fill="none" stroke="#f06700" stroke-width="3" opacity="0.822"><rect width="16.796" height="16.796" rx="2" stroke="none"/><rect x="1.5" y="1.5" width="13.796" height="13.796" rx="0.5" fill="none"/></g><g transform="translate(886.761 304.125) rotate(-133)" fill="none" stroke="#f06700" stroke-width="3" opacity="0.946"><rect width="18.161" height="18.161" rx="2" stroke="none"/><rect x="1.5" y="1.5" width="15.161" height="15.161" rx="0.5" fill="none"/></g><g transform="translate(822.714 603.682) rotate(139)" fill="none" stroke="#f06700" stroke-width="3" opacity="0.847"><rect width="20.207" height="20.207" rx="2" stroke="none"/><rect x="1.5" y="1.5" width="17.207" height="17.207" rx="0.5" fill="none"/></g><g transform="translate(791.746 693.145) rotate(169)" fill="none" stroke="#f06700" stroke-width="3" opacity="0.826"><rect width="21.045" height="21.045" rx="2" stroke="none"/><rect x="1.5" y="1.5" width="18.045" height="18.045" rx="0.5" fill="none"/></g><g transform="matrix(-0.951, -0.309, 0.309, -0.951, 737.96, 857.004)" fill="none" stroke="#f06700" stroke-width="3" opacity="0.899"><rect width="20.371" height="20.371" rx="2" stroke="none"/><rect x="1.5" y="1.5" width="17.371" height="17.371" rx="0.5" fill="none"/></g><g transform="matrix(-0.208, -0.978, 0.978, -0.208, 913.604, 982.495)" fill="none" stroke="#f06700" stroke-width="3" opacity="0.954"><rect width="16.754" height="16.754" rx="2" stroke="none"/><rect x="1.5" y="1.5" width="13.754" height="13.754" rx="0.5" fill="none"/></g><g transform="translate(1145.38 179.029) rotate(-107)" fill="none" stroke="#f06700" stroke-width="3" opacity="0.897"><rect width="21.774" height="21.774" rx="2" stroke="none"/><rect x="1.5" y="1.5" width="18.774" height="18.774" rx="0.5" fill="none"/></g><g transform="translate(1074.368 229.224) rotate(103)" fill="none" stroke="#f06700" stroke-width="3" opacity="0.956"><rect width="17.409" height="17.409" rx="2" stroke="none"/><rect x="1.5" y="1.5" width="14.409" height="14.409" rx="0.5" fill="none"/></g><g transform="matrix(-0.174, -0.985, 0.985, -0.174, 957.509, 375.901)" fill="none" stroke="#f06700" stroke-width="3" opacity="0.857"><rect width="18.582" height="18.582" rx="2" stroke="none"/><rect x="1.5" y="1.5" width="15.582" height="15.582" rx="0.5" fill="none"/></g><g transform="translate(1057.085 527.002) rotate(-133)" fill="none" stroke="#f06700" stroke-width="3" opacity="0.834"><rect width="17.425" height="17.425" rx="2" stroke="none"/><rect x="1.5" y="1.5" width="14.425" height="14.425" rx="0.5" fill="none"/></g><g transform="translate(1174.935 961.816) rotate(8)" fill="none" stroke="#f06700" stroke-width="3" opacity="0.934"><rect width="21.746" height="21.746" rx="2" stroke="none"/><rect x="1.5" y="1.5" width="18.746" height="18.746" rx="0.5" fill="none"/></g><g transform="translate(1246.247 344.288) rotate(-172)" fill="none" stroke="#f06700" stroke-width="3" opacity="0.996"><rect width="18.371" height="18.371" rx="2" stroke="none"/><rect x="1.5" y="1.5" width="15.371" height="15.371" rx="0.5" fill="none"/></g><g transform="matrix(0.883, 0.469, -0.469, 0.883, 1403.024, 631.939)" fill="none" stroke="#f06700" stroke-width="3" opacity="0.866"><rect width="21.318" height="21.318" rx="2" stroke="none"/><rect x="1.5" y="1.5" width="18.318" height="18.318" rx="0.5" fill="none"/></g><g transform="translate(1432.834 822.617) rotate(-177)" fill="none" stroke="#f06700" stroke-width="3" opacity="0.983"><rect width="17.322" height="17.322" rx="2" stroke="none"/><rect x="1.5" y="1.5" width="14.322" height="14.322" rx="0.5" fill="none"/></g><g transform="translate(1415.206 877.314) rotate(-99)" fill="none" stroke="#f06700" stroke-width="3" opacity="0.865"><rect width="19.113" height="19.113" rx="2" stroke="none"/><rect x="1.5" y="1.5" width="16.113" height="16.113" rx="0.5" fill="none"/></g><g transform="matrix(0.839, 0.545, -0.545, 0.839, 1352.159, 1053.561)" fill="none" stroke="#f06700" stroke-width="3" opacity="0.873"><rect width="17.442" height="17.442" rx="2" stroke="none"/><rect x="1.5" y="1.5" width="14.442" height="14.442" rx="0.5" fill="none"/></g><g transform="matrix(-0.309, -0.951, 0.951, -0.309, 1597.128, 289.325)" fill="none" stroke="#f06700" stroke-width="3" opacity="0.876"><rect width="19.92" height="19.92" rx="2" stroke="none"/><rect x="1.5" y="1.5" width="16.92" height="16.92" rx="0.5" fill="none"/></g><g transform="translate(1497.185 323.807) rotate(21)" fill="none" stroke="#f06700" stroke-width="3" opacity="0.812"><rect width="21.608" height="21.608" rx="2" stroke="none"/><rect x="1.5" y="1.5" width="18.608" height="18.608" rx="0.5" fill="none"/></g><g transform="translate(1589.338 456.421) rotate(149)" fill="none" stroke="#f06700" stroke-width="3" opacity="0.832"><rect width="16.934" height="16.934" rx="2" stroke="none"/><rect x="1.5" y="1.5" width="13.934" height="13.934" rx="0.5" fill="none"/></g><g transform="translate(1489.261 650.395) rotate(-167)" fill="none" stroke="#f06700" stroke-width="3" opacity="0.882"><rect width="16.508" height="16.508" rx="2" stroke="none"/><rect x="1.5" y="1.5" width="13.508" height="13.508" rx="0.5" fill="none"/></g><g transform="matrix(0.07, 0.998, -0.998, 0.07, 1454.412, 741.496)" fill="none" stroke="#f06700" stroke-width="3" opacity="0.92"><rect width="21.183" height="21.183" rx="2" stroke="none"/><rect x="1.5" y="1.5" width="18.183" height="18.183" rx="0.5" fill="none"/></g><g transform="translate(1682.789 886.275) rotate(155)" fill="none" stroke="#f06700" stroke-width="3" opacity="0.86"><rect width="20.444" height="20.444" rx="2" stroke="none"/><rect x="1.5" y="1.5" width="17.444" height="17.444" rx="0.5" fill="none"/></g><g transform="translate(1842.49 57.758) rotate(3)" fill="none" stroke="#f06700" stroke-width="3" opacity="0.957"><rect width="18.602" height="18.602" rx="2" stroke="none"/><rect x="1.5" y="1.5" width="15.602" height="15.602" rx="0.5" fill="none"/></g><g transform="matrix(0.259, 0.966, -0.966, 0.259, 1920.177, 341.195)" fill="none" stroke="#f06700" stroke-width="3" opacity="0.881"><rect width="21.201" height="21.201" rx="2" stroke="none"/><rect x="1.5" y="1.5" width="18.201" height="18.201" rx="0.5" fill="none"/></g><g transform="matrix(0.616, 0.788, -0.788, 0.616, 1900.205, 461.281)" fill="none" stroke="#f06700" stroke-width="3" opacity="0.912"><rect width="20.334" height="20.334" rx="2" stroke="none"/><rect x="1.5" y="1.5" width="17.334" height="17.334" rx="0.5" fill="none"/></g><g transform="translate(1907.766 620.809) rotate(132)" fill="none" stroke="#f06700" stroke-width="3" opacity="0.812"><rect width="17.528" height="17.528" rx="2" stroke="none"/><rect x="1.5" y="1.5" width="14.528" height="14.528" rx="0.5" fill="none"/></g><g transform="translate(1784.161 669.033) rotate(-141)" fill="none" stroke="#f06700" stroke-width="3" opacity="0.973"><rect width="18.655" height="18.655" rx="2" stroke="none"/><rect x="1.5" y="1.5" width="15.655" height="15.655" rx="0.5" fill="none"/></g><g transform="matrix(-0.809, -0.588, 0.588, -0.809, 1912.232, 856.746)" fill="none" stroke="#f06700" stroke-width="3" opacity="0.977"><rect width="20.441" height="20.441" rx="2" stroke="none"/><rect x="1.5" y="1.5" width="17.441" height="17.441" rx="0.5" fill="none"/></g><g transform="matrix(0.588, 0.809, -0.809, 0.588, 1802.227, 898.415)" fill="none" stroke="#f06700" stroke-width="3" opacity="0.965"><rect width="19.309" height="19.309" rx="2" stroke="none"/><rect x="1.5" y="1.5" width="16.309" height="16.309" rx="0.5" fill="none"/></g><g transform="translate(1898.331 1034.912) rotate(163)" fill="none" stroke="#f06700" stroke-width="3" opacity="0.841"><rect width="18.361" height="18.361" rx="2" stroke="none"/><rect x="1.5" y="1.5" width="15.361" height="15.361" rx="0.5" fill="none"/></g></g></g></svg>